# xmcd
#
# Track frame offsets: 
#        150
#        12852
#        24447
#        38995
#        52614
#        67352
#        82597
#        92709
#        103942
#        110145
#        123611
#        134301
#        146660
#        155451
#        169632
#
# Disc length: 2387 seconds
#
# Revision: 0
# Processed by: cddbd v1.5.2PL0 Copyright (c) Steve Scherf et al.
# Submitted via: ExactAudioCopy v0.99pb3
#
DISCID=c609510f
DTITLE=Various Artist - Best of Country - Platinum Songs -CD 1-
DYEAR=2008
DGENRE=Country
TTITLE0=Johnny Cash - I walk the line
TTITLE1=Tom T. Hall - Ravishing Ruby
TTITLE2=B. J.Thomas - I am so lonesome
TTITLE3=Patty Page - Tennessee Waltz
TTITLE4=George Jones - A good year for the roses
TTITLE5=Frankie Laine - Sixteen Tons
TTITLE6=Willie Nelson - Boken Promises
TTITLE7=Dolly Parton - It wasn't god who made honky tonk angels
TTITLE8=Nashville 10 - Singing my song
TTITLE9=Tex Williams - Smoke, smoke, smoke
TTITLE10=Johnny Cash - You win again
TTITLE11=Lee Hazzlewood - These boots are made for walking
TTITLE12=Willie Nelson One step beyond
TTITLE13=Tom T. Hall - Week in a country jail
TTITLE14=Webb Pierce - In the jailhouse now
EXTD=
EXTT0=
EXTT1=
EXTT2=
EXTT3=
EXTT4=
EXTT5=
EXTT6=
EXTT7=
EXTT8=
EXTT9=
EXTT10=
EXTT11=
EXTT12=
EXTT13=
EXTT14=
PLAYORDER=
